<svg width="127" height="127" viewBox="0 0 127 127" fill="none" xmlns="http://www.w3.org/2000/svg">
<path d="M83.1242 20.325C83.1242 25.5299 81.0566 30.5216 77.3762 34.202C73.6958 37.8824 68.7041 39.95 63.4992 39.95C58.2943 39.95 53.3027 37.8824 49.6222 34.202C45.9418 30.5216 43.8742 25.5299 43.8742 20.325C43.8742 15.1201 45.9418 10.1284 49.6222 6.44804C53.3027 2.76764 58.2943 0.700012 63.4992 0.700012C68.7041 0.700012 73.6958 2.76764 77.3762 6.44804C81.0566 10.1284 83.1242 15.1201 83.1242 20.325ZM122.374 24.25C122.374 28.4139 120.72 32.4073 117.776 35.3516C114.831 38.2959 110.838 39.95 106.674 39.95C102.51 39.95 98.517 38.2959 95.5726 35.3516C92.6283 32.4073 90.9742 28.4139 90.9742 24.25C90.9742 20.0861 92.6283 16.0928 95.5726 13.1484C98.517 10.2041 102.51 8.55001 106.674 8.55001C110.838 8.55001 114.831 10.2041 117.776 13.1484C120.72 16.0928 122.374 20.0861 122.374 24.25ZM20.3242 39.95C24.4881 39.95 28.4815 38.2959 31.4258 35.3516C34.3701 32.4073 36.0242 28.4139 36.0242 24.25C36.0242 20.0861 34.3701 16.0928 31.4258 13.1484C28.4815 10.2041 24.4881 8.55001 20.3242 8.55001C16.1603 8.55001 12.167 10.2041 9.22264 13.1484C6.27832 16.0928 4.62422 20.0861 4.62422 24.25C4.62422 28.4139 6.27832 32.4073 9.22264 35.3516C12.167 38.2959 16.1603 39.95 20.3242 39.95ZM32.0992 57.6125C32.0992 52.196 36.4952 47.8 41.9117 47.8H85.0867C90.5032 47.8 94.8992 52.196 94.8992 57.6125V94.9C94.8992 103.228 91.591 111.215 85.7024 117.103C79.8137 122.992 71.827 126.3 63.4992 126.3C55.1714 126.3 47.1847 122.992 41.2961 117.103C35.4074 111.215 32.0992 103.228 32.0992 94.9V57.6125ZM24.2492 57.6125C24.2492 53.978 25.3482 50.6103 27.2244 47.8H10.5117C5.09522 47.8 0.699219 52.196 0.699219 57.6125V87.05C0.698852 90.4108 1.4178 93.7326 2.80774 96.7925C4.19769 99.8523 6.22644 102.579 8.75767 104.79C11.2889 107.001 14.264 108.644 17.483 109.61C20.7021 110.575 24.0905 110.841 27.4206 110.388C25.3204 105.495 24.2412 100.225 24.2492 94.9V57.6125ZM102.749 94.9C102.749 100.395 101.619 105.639 99.5778 110.388C102.908 110.841 106.296 110.575 109.515 109.61C112.734 108.644 115.71 107.001 118.241 104.79C120.772 102.579 122.801 99.8523 124.191 96.7925C125.581 93.7326 126.3 90.4108 126.299 87.05V57.6125C126.299 52.196 121.903 47.8 116.487 47.8H99.7741C101.658 50.6103 102.749 53.978 102.749 57.6125V94.9Z" fill="#00ABE7" fill-opacity="0.25"/>
</svg>
